<svg width="1306" height="1311" xmlns="http://www.w3.org/2000/svg" xmlns:xlink="http://www.w3.org/1999/xlink" xml:space="preserve" overflow="hidden"><g transform="translate(-197 -169)"><g><rect x="201.5" y="175.5" width="1299" height="1299" stroke="#FFFFFF" stroke-width="4.58333" stroke-linecap="butt" stroke-linejoin="miter" stroke-miterlimit="8" stroke-opacity="1" fill="#FFFFFF" fill-opacity="1"/><path d="M890.831 1162.56 1166.57 411.714 1098.55 386.733 1298.4 262.973 1370.65 486.659 1302.62 461.677 1026.88 1212.52Z" stroke="#002060" stroke-width="4.58333" stroke-linecap="butt" stroke-linejoin="miter" stroke-miterlimit="8" stroke-opacity="1" fill="#002060" fill-rule="evenodd" fill-opacity="1"/><path d="M853.382 720.988C902.854 586.278 1052.16 517.178 1186.87 566.65 1321.58 616.122 1390.68 765.431 1341.21 900.141 1291.74 1034.85 1142.43 1103.95 1007.72 1054.48 873.01 1005.01 803.911 855.698 853.382 720.988Z" stroke="#0070C0" stroke-width="55" stroke-linecap="butt" stroke-linejoin="miter" stroke-miterlimit="8" stroke-opacity="1" fill="#FFFFFF" fill-rule="evenodd" fill-opacity="1"/><path d="M524.768 1436.69 365.978 652.736 294.954 667.122 400.263 456.966 579.049 609.578 508.026 623.964 666.817 1407.92Z" stroke="#002060" stroke-width="4.58333" stroke-linecap="butt" stroke-linejoin="miter" stroke-miterlimit="8" stroke-opacity="1" fill="#002060" fill-rule="evenodd" fill-opacity="1"/><path d="M261.398 1080.29C232.909 939.639 323.834 802.524 464.485 774.035 605.136 745.546 742.251 836.471 770.74 977.122 799.229 1117.77 708.304 1254.89 567.653 1283.38 427.002 1311.87 289.887 1220.94 261.398 1080.29Z" stroke="#0070C0" stroke-width="4.58333" stroke-linecap="butt" stroke-linejoin="miter" stroke-miterlimit="8" stroke-opacity="1" fill="#0070C0" fill-rule="evenodd" fill-opacity="1"/></g></g></svg>